<svg width="16" height="18" viewBox="0 0 16 18" fill="none" xmlns="http://www.w3.org/2000/svg">
<path d="M2 5.5L8 2L14 5.5V12.5L8 16L2 12.5V5.5Z" fill="#212222"/>
<path d="M14.746 4.69004L14.7464 4.69023C14.8584 4.75558 14.9503 4.85057 15.0118 4.96474C15.0691 5.06836 15.0994 5.1847 15.1 5.3031L15.1 5.30361L15.1 12.6956V12.6956C15.1 12.82 15.0673 12.9421 15.0051 13.0498C14.943 13.1574 14.8537 13.2469 14.7461 13.3092L14.746 13.3092L8.3545 17.0039C8.35439 17.004 8.35429 17.0041 8.35418 17.0041C8.13515 17.1321 7.86485 17.1321 7.64582 17.0041C7.64571 17.0041 7.64561 17.004 7.6455 17.0039L1.25395 13.3092L1.25384 13.3091C1.14634 13.2468 1.05708 13.1573 0.994988 13.0497C0.932896 12.942 0.900142 12.82 0.9 12.6957L0.9 12.6956L0.9 5.30361V5.30257L0.900005 5.30257C0.901292 5.17882 0.934455 5.05749 0.996293 4.95029C1.05813 4.84309 1.14656 4.75364 1.25304 4.69057L1.25395 4.69003L1.25395 4.69004L7.64592 0.995057C7.75353 0.932788 7.87567 0.9 8 0.9C8.12432 0.9 8.24644 0.932781 8.35405 0.995036L14.746 4.69004ZM14.746 4.69004L8.35408 0.995057L14.746 4.69004ZM7.94961 9.66499L8 9.69438L8.05039 9.66499L8.30238 9.518L8.30239 9.51799L13.9 6.25369V12.4119L8 15.8241L2.1 12.4119V6.25272L7.69761 9.51799L7.94961 9.66499ZM2.72313 5.22697L8 2.17513L13.2769 5.22697L8 8.30385L2.72313 5.22697Z" fill="white" stroke="#212222" stroke-width="0.2"/>
<path d="M11 7L11 15" stroke="white"/>
<path d="M5 7L5 15" stroke="white"/>
</svg>
