<svg width="14" height="16" viewBox="0 0 14 16" fill="none" xmlns="http://www.w3.org/2000/svg">
<path fill-rule="evenodd" clip-rule="evenodd" d="M13.924 4.01261C13.8712 3.91444 13.7923 3.83277 13.696 3.77661L7.304 0.0816116C7.21161 0.0281503 7.10675 0 7 0C6.89325 0 6.7884 0.0281503 6.696 0.0816116L0.304 3.77661C0.212309 3.83092 0.136164 3.90795 0.0829145 4.00026C0.0296648 4.09257 0.00110806 4.19705 0 4.30361L0 11.6956C0.00012201 11.8024 0.0282627 11.9072 0.0816097 11.9997C0.134957 12.0922 0.211641 12.1691 0.304 12.2226L6.696 15.9176C6.884 16.0276 7.116 16.0276 7.304 15.9176L13.696 12.2226C13.7884 12.1691 13.8652 12.0923 13.9185 11.9998C13.9719 11.9073 14 11.8024 14 11.6956V4.30361C13.9995 4.20177 13.9733 4.1017 13.924 4.01261ZM1 5.07861V11.4696L7 14.9396L13 11.4696V5.07961L7.252 8.43161L7 8.57861L6.748 8.43161L1 5.07861ZM12.476 4.22661L7 1.05961L1.524 4.22661L7 7.41961L12.476 4.22661Z" fill="white"/>
<path d="M10 6L10 14" stroke="white"/>
<path d="M4 6L4 14" stroke="white"/>
</svg>
